<?xml version="1.0" encoding="utf-8"?>
<!-- Generator: Adobe Illustrator 25.0.1, SVG Export Plug-In . SVG Version: 6.00 Build 0)  -->
<svg version="1.1" id="Layer_1" xmlns:svgjs="http://svgjs.com/svgjs"
	 xmlns="http://www.w3.org/2000/svg" xmlns:xlink="http://www.w3.org/1999/xlink" x="0px" y="0px" viewBox="0 0 288 288"
	 style="enable-background:new 0 0 288 288;" xml:space="preserve">
<style type="text/css">
	.st0{fill:#FFFFFF;}
</style>
<path class="st0" d="M113.6,114.8L80.3,80.2C88.8,71.7,94,60,94,47C94,21.1,72.9,0,47,0S0,21.1,0,47s21.1,47,47,47
	c11.4,0,21.8-4.1,30-10.8l33.3,34.7c0.4,0.5,1,0.7,1.6,0.7c0.6,0,1.1-0.2,1.6-0.6C114.4,117.1,114.4,115.7,113.6,114.8z M47,89.6
	C23.6,89.6,4.5,70.5,4.5,47S23.6,4.5,47,4.5S89.6,23.6,89.6,47S70.5,89.6,47,89.6z"/>
</svg>
